<mxfile host="app.diagrams.net" modified="2023-10-11T23:43:38.193Z" agent="Mozilla/5.0 (Windows NT 10.0; Win64; x64) AppleWebKit/537.36 (KHTML, like Gecko) Chrome/118.0.0.0 Safari/537.36" etag="dLhY7F9ITlR25YKz7d-0" version="22.0.4" type="github">
  <diagram name="Page-1" id="IsL5Xlo5d_qJwoIP0oEM">
    <mxGraphModel dx="1434" dy="782" grid="1" gridSize="10" guides="1" tooltips="1" connect="1" arrows="1" fold="1" page="1" pageScale="1" pageWidth="850" pageHeight="1100" math="0" shadow="0">
      <root>
        <mxCell id="0" />
        <mxCell id="1" parent="0" />
        <mxCell id="ricczd5WDg1Xv0APGCAu-3" value="" style="edgeStyle=orthogonalEdgeStyle;rounded=0;orthogonalLoop=1;jettySize=auto;html=1;" edge="1" parent="1" source="ricczd5WDg1Xv0APGCAu-1" target="ricczd5WDg1Xv0APGCAu-2">
          <mxGeometry relative="1" as="geometry" />
        </mxCell>
        <mxCell id="ricczd5WDg1Xv0APGCAu-1" value="Start" style="ellipse;whiteSpace=wrap;html=1;" vertex="1" parent="1">
          <mxGeometry x="365" y="40" width="120" height="90" as="geometry" />
        </mxCell>
        <mxCell id="ricczd5WDg1Xv0APGCAu-5" value="" style="edgeStyle=orthogonalEdgeStyle;rounded=0;orthogonalLoop=1;jettySize=auto;html=1;" edge="1" parent="1" source="ricczd5WDg1Xv0APGCAu-2" target="ricczd5WDg1Xv0APGCAu-4">
          <mxGeometry relative="1" as="geometry" />
        </mxCell>
        <mxCell id="ricczd5WDg1Xv0APGCAu-2" value="i = 0" style="whiteSpace=wrap;html=1;" vertex="1" parent="1">
          <mxGeometry x="300" y="190" width="250" height="60" as="geometry" />
        </mxCell>
        <mxCell id="ricczd5WDg1Xv0APGCAu-7" value="" style="edgeStyle=orthogonalEdgeStyle;rounded=0;orthogonalLoop=1;jettySize=auto;html=1;" edge="1" parent="1" source="ricczd5WDg1Xv0APGCAu-4" target="ricczd5WDg1Xv0APGCAu-6">
          <mxGeometry relative="1" as="geometry" />
        </mxCell>
        <mxCell id="ricczd5WDg1Xv0APGCAu-15" style="edgeStyle=orthogonalEdgeStyle;rounded=0;orthogonalLoop=1;jettySize=auto;html=1;exitX=0;exitY=0.5;exitDx=0;exitDy=0;entryX=0;entryY=0.5;entryDx=0;entryDy=0;" edge="1" parent="1" source="ricczd5WDg1Xv0APGCAu-4" target="ricczd5WDg1Xv0APGCAu-10">
          <mxGeometry relative="1" as="geometry">
            <Array as="points">
              <mxPoint x="270" y="360" />
              <mxPoint x="270" y="660" />
            </Array>
          </mxGeometry>
        </mxCell>
        <mxCell id="ricczd5WDg1Xv0APGCAu-16" value="False" style="edgeLabel;html=1;align=center;verticalAlign=middle;resizable=0;points=[];" vertex="1" connectable="0" parent="ricczd5WDg1Xv0APGCAu-15">
          <mxGeometry x="-0.8526" y="-2" relative="1" as="geometry">
            <mxPoint x="-45" y="112" as="offset" />
          </mxGeometry>
        </mxCell>
        <mxCell id="ricczd5WDg1Xv0APGCAu-4" value="while i&amp;lt;5" style="rhombus;whiteSpace=wrap;html=1;" vertex="1" parent="1">
          <mxGeometry x="350" y="320" width="150" height="80" as="geometry" />
        </mxCell>
        <mxCell id="ricczd5WDg1Xv0APGCAu-11" value="" style="edgeStyle=orthogonalEdgeStyle;rounded=0;orthogonalLoop=1;jettySize=auto;html=1;" edge="1" parent="1" source="ricczd5WDg1Xv0APGCAu-6" target="ricczd5WDg1Xv0APGCAu-10">
          <mxGeometry relative="1" as="geometry" />
        </mxCell>
        <mxCell id="ricczd5WDg1Xv0APGCAu-14" style="edgeStyle=orthogonalEdgeStyle;rounded=0;orthogonalLoop=1;jettySize=auto;html=1;entryX=1;entryY=0.5;entryDx=0;entryDy=0;" edge="1" parent="1" source="ricczd5WDg1Xv0APGCAu-6" target="ricczd5WDg1Xv0APGCAu-4">
          <mxGeometry relative="1" as="geometry">
            <Array as="points">
              <mxPoint x="570" y="520" />
              <mxPoint x="570" y="360" />
            </Array>
          </mxGeometry>
        </mxCell>
        <mxCell id="ricczd5WDg1Xv0APGCAu-17" value="True" style="edgeLabel;html=1;align=center;verticalAlign=middle;resizable=0;points=[];" vertex="1" connectable="0" parent="ricczd5WDg1Xv0APGCAu-14">
          <mxGeometry x="0.1048" y="3" relative="1" as="geometry">
            <mxPoint x="-142" y="-1" as="offset" />
          </mxGeometry>
        </mxCell>
        <mxCell id="ricczd5WDg1Xv0APGCAu-6" value="Print(i)&lt;br&gt;i = i + 1" style="whiteSpace=wrap;html=1;" vertex="1" parent="1">
          <mxGeometry x="365" y="490" width="120" height="60" as="geometry" />
        </mxCell>
        <mxCell id="ricczd5WDg1Xv0APGCAu-13" value="" style="edgeStyle=orthogonalEdgeStyle;rounded=0;orthogonalLoop=1;jettySize=auto;html=1;" edge="1" parent="1" source="ricczd5WDg1Xv0APGCAu-10" target="ricczd5WDg1Xv0APGCAu-12">
          <mxGeometry relative="1" as="geometry" />
        </mxCell>
        <mxCell id="ricczd5WDg1Xv0APGCAu-10" value="Print(&quot;Done&quot;)" style="whiteSpace=wrap;html=1;" vertex="1" parent="1">
          <mxGeometry x="365" y="630" width="120" height="60" as="geometry" />
        </mxCell>
        <mxCell id="ricczd5WDg1Xv0APGCAu-12" value="End" style="ellipse;whiteSpace=wrap;html=1;" vertex="1" parent="1">
          <mxGeometry x="385" y="760" width="80" height="80" as="geometry" />
        </mxCell>
        <mxCell id="ricczd5WDg1Xv0APGCAu-18" value="Actor" style="shape=umlActor;verticalLabelPosition=bottom;verticalAlign=top;html=1;outlineConnect=0;" vertex="1" parent="1">
          <mxGeometry x="120" y="250" width="30" height="60" as="geometry" />
        </mxCell>
        <mxCell id="ricczd5WDg1Xv0APGCAu-25" value="Actor" style="shape=umlActor;verticalLabelPosition=bottom;verticalAlign=top;html=1;outlineConnect=0;" vertex="1" parent="1">
          <mxGeometry x="680" y="250" width="30" height="60" as="geometry" />
        </mxCell>
        <mxCell id="ricczd5WDg1Xv0APGCAu-26" value="Thanks!" style="shape=callout;whiteSpace=wrap;html=1;perimeter=calloutPerimeter;" vertex="1" parent="1">
          <mxGeometry x="650" y="160" width="120" height="80" as="geometry" />
        </mxCell>
        <mxCell id="ricczd5WDg1Xv0APGCAu-29" value="That&#39;s&lt;br&gt;&amp;nbsp;Amazing!" style="whiteSpace=wrap;html=1;shape=mxgraph.basic.loud_callout" vertex="1" parent="1">
          <mxGeometry x="140" y="190" width="100" height="60" as="geometry" />
        </mxCell>
        <mxCell id="ricczd5WDg1Xv0APGCAu-30" value="" style="verticalLabelPosition=bottom;verticalAlign=top;html=1;shape=mxgraph.basic.smiley" vertex="1" parent="1">
          <mxGeometry x="120" y="60" width="70" height="70" as="geometry" />
        </mxCell>
      </root>
    </mxGraphModel>
  </diagram>
</mxfile>
